<?xml version="1.0" encoding="utf-8"?><!-- Uploaded to: SVG Repo, www.svgrepo.com, Generator: SVG Repo Mixer Tools -->
<svg fill="#000000" width="800px" height="800px" viewBox="0 0 24 24" id="clipboard-checklist-6" data-name="Flat Line" xmlns="http://www.w3.org/2000/svg" class="icon flat-line"><path id="secondary" d="M17,6H14V8H8V6H5A1,1,0,0,0,4,7V20a1,1,0,0,0,1,1h6V16a2,2,0,0,1,2-2h5V7A1,1,0,0,0,17,6Z" style="fill: rgb(44, 169, 188); stroke-width: 2;"></path><path id="primary" d="M14,6h3a1,1,0,0,1,1,1v7" style="fill: none; stroke: rgb(0, 0, 0); stroke-linecap: round; stroke-linejoin: round; stroke-width: 2;"></path><path id="primary-2" data-name="primary" d="M8,6H5A1,1,0,0,0,4,7V20a1,1,0,0,0,1,1h6" style="fill: none; stroke: rgb(0, 0, 0); stroke-linecap: round; stroke-linejoin: round; stroke-width: 2;"></path><path id="primary-3" data-name="primary" d="M13,5h0a2,2,0,0,0-2-2h0A2,2,0,0,0,9,5H9A1,1,0,0,0,8,6V8h6V6A1,1,0,0,0,13,5ZM8,17h3M8,13h6" style="fill: none; stroke: rgb(0, 0, 0); stroke-linecap: round; stroke-linejoin: round; stroke-width: 2;"></path><polyline id="primary-4" data-name="primary" points="14 19 16 21 20 17" style="fill: none; stroke: rgb(0, 0, 0); stroke-linecap: round; stroke-linejoin: round; stroke-width: 2;"></polyline></svg>